<?xml version="1.0" encoding="utf-8"?>
<!-- Generator: Adobe Illustrator 23.0.3, SVG Export Plug-In . SVG Version: 6.00 Build 0)  -->
<svg version="1.1" id="Layer_1" xmlns="http://www.w3.org/2000/svg" xmlns:xlink="http://www.w3.org/1999/xlink" x="0px" y="0px"
	 viewBox="0 0 432 432" style="enable-background:new 0 0 432 432;" xml:space="preserve">
<style type="text/css">
	.st0{fill:#FEFEFE;}
	.st1{fill:#A9A9A9;}
	.st2{fill:#E4E4E4;}
	.st3{fill:#BEBEBE;}
	.st4{fill:#F8BFBF;}
	.st5{fill:#D5D5D5;}
	.st6{fill:#D3D3D3;}
	.st7{fill:#FCFCFC;}
	.st8{fill:#4B4B4A;}
	.st9{fill:#4F4F4E;}
	.st10{fill:#F9F9F9;}
	.st11{fill:#5A5A5A;}
	.st12{clip-path:url(#SVGID_2_);fill:#DD1500;}
	.st13{clip-path:url(#SVGID_4_);fill:#DD1500;}
	.st14{fill:#FCFCFC;stroke:#4B4B4A;stroke-width:2;stroke-miterlimit:10;}
</style>
<g>
	<g>
		<path class="st0" d="M432.09,4c0.01-3.42-0.67-4.1-4.09-4.09c-141.33,0.11-282.67,0.11-424,0C0.58-0.1-0.1,0.58-0.09,4
			c0.11,141.33,0.11,282.67,0,424c-0.01,3.42,0.67,4.1,4.09,4.1c70.5-0.13,141-0.1,211.5-0.1c70.83,0,141.67-0.03,212.5,0.1
			c3.42,0,4.1-0.68,4.09-4.1C431.98,286.67,431.98,145.33,432.09,4z M362.69,151.64c13.47,45.75,1.78,86.02-27.19,122.28
			c-15.88,19.87-35.74,34.74-59.12,44.8c-2.5,1.08-3.56,2.13-1.82,4.65c0.55,0.81,1.07,1.78,1.19,2.73c0.53,4.04,2.6,4.74,6.4,3.95
			c5.66-1.19,10.02,1.39,13.22,6.05c0.81,1.19,1.16,2.63,3.05,2.92c9.08,1.39,13.3,7.86,15.06,15.92c0.84,3.87,2.36,3.74,5.25,3.01
			c15.75-3.96,24.77-15.53,23.37-30.11c-1.24-12.84-12.98-20.49-23.33-15.19c-4.41,2.26-6.55,7.17-4.7,11.22
			c1.25,2.74,2.98,4.83,6.6,3.53c1.43-0.52,3.59-1.39,3.94,1.19c0.26,1.96-1.51,2.8-3.2,3.25c-6.1,1.64-11.71-2.77-12.35-9.69
			c-0.86-9.19,7.89-16.33,18.27-15.53c14.79,1.15,21.63,18.59,19.14,30.01c-3.32,15.18-14.15,22.3-28.06,25.77
			c-3.45,0.86-4.5,2.06-4.44,5.52c0.14,7.84-3.11,14.9-5.85,22.04c19.18,1.23,38.25,3.14,56.72,8.89c3.34,1.04,7.66,2.32,7.57,6.09
			c-0.08,3.64-4.28,4.95-7.69,6.03c-14.91,4.74-30.34,6.39-45.81,8.16c-16.13,1.86-32.36,2.1-48.49,3.76
			c-0.66,0.07-1.33,0.1-1.99,0.08c-15.46-0.44-30.9,1.06-46.33,0.87c-15.28-0.18-30.59-0.23-45.83-1.06
			c-26.56-1.45-53.2-2.77-79.42-7.89c-6.16-1.2-12.34-2.61-18.03-5.49c-1.81-0.92-3.67-1.87-3.75-4.24
			c-0.1-2.64,1.91-3.71,3.89-4.64c7.9-3.69,16.41-5.11,24.91-6.53c7.66-1.28,15.27-2.89,23.09-3.01c1.49-0.03,2.5-0.77,3.15-2.07
			c-3.95-9.47-6.13-19.21-5.2-29.59c0.92-10.32,5.61-16.55,15.55-19.33c1.98-0.55,2.51-2,3.41-3.32c3.32-4.84,7.69-7.01,13.66-5.95
			c5.86,1.04,4.29-4.72,6.11-7.28c1.87-2.64-0.69-3.65-2.74-4.53c-21.18-9.03-39.42-22.24-54.71-39.37
			c-26.47-29.65-40.1-64.02-37.01-104.19c0.6-7.78,2.26-15.46,4.82-22.87c0.96-2.76,0.66-4.7-1.55-7.02
			C39.75,111.17,42.8,55.73,78.96,24.7c25.72-22.07,66.86-20.98,91.5,2.29c8.48,8.02,15.17,17.2,19.82,27.9
			c1.31,3.02,7.16,4.38,9.52,2.28c0.32-0.28,0.72-0.89,0.61-1.15c-2.87-6.98,3.11-4.06,4.71-3.54c3.43,1.12,4.72,0.09,5.87-2.93
			c1.03-2.7,3.3-4.53,5.78-6.02c2.01-1.21,4.35-2.95,6.39-2.01c1.74,0.81-0.43,3.27-0.07,5.06c0.53,2.57,0.89,5.18,1.42,8.33
			c2.8-1.24,4.22-3.81,6.83-4.4c2.32-0.53,4.22-0.89,2.99,2.63c-0.93,2.64,0.09,3.72,2.92,4.3c8.18,1.67,8.41,1.51,12.05-5.64
			c13.69-26.93,34.94-42.99,65.82-43.6c28.3-0.55,56.02,18.74,66.66,46.08c13.48,34.66,7.67,65.89-18.1,93.03
			C362.29,148.77,362.15,149.81,362.69,151.64z"/>
		<path class="st1" d="M276.38,318.72c23.38-10.06,43.24-24.93,59.12-44.8c28.97-36.26,40.66-76.53,27.19-122.28
			c-0.54-1.83-0.4-2.87,0.99-4.33c25.77-27.14,31.58-58.37,18.1-93.03C371.14,26.94,343.42,7.65,315.12,8.2
			c-30.88,0.61-52.13,16.67-65.82,43.6c-3.64,7.15-3.87,7.31-12.05,5.64c-2.83-0.58-3.85-1.66-2.92-4.3
			c1.23-3.52-0.67-3.16-2.99-2.63c-2.61,0.59-4.03,3.16-6.83,4.4c-0.53-3.15-0.89-5.76-1.42-8.33c-0.36-1.79,1.81-4.25,0.07-5.06
			c-2.04-0.94-4.38,0.8-6.39,2.01c-2.48,1.49-4.75,3.32-5.78,6.02c-1.15,3.02-2.44,4.05-5.87,2.93c-1.6-0.52-7.58-3.44-4.71,3.54
			c0.11,0.26-0.29,0.87-0.61,1.15c-2.36,2.1-8.21,0.74-9.52-2.28c-4.65-10.7-11.34-19.88-19.82-27.9
			c-24.64-23.27-65.78-24.36-91.5-2.29c-36.16,31.03-39.21,86.47-6.51,120.76c2.21,2.32,2.51,4.26,1.55,7.02
			c-2.56,7.41-4.22,15.09-4.82,22.87c-3.09,40.17,10.54,74.54,37.01,104.19c15.29,17.13,33.53,30.34,54.71,39.37
			c2.05,0.88,4.61,1.89,2.74,4.53c-1.82,2.56-0.25,8.32-6.11,7.28c-5.97-1.06-10.34,1.11-13.66,5.95c-0.9,1.32-1.43,2.77-3.41,3.32
			c-9.94,2.78-14.63,9.01-15.55,19.33c-0.93,10.38,1.25,20.12,5.2,29.59c4.61,9.76,10.75,18.34,19.73,24.54
			c9.3,6.42,16.37,6.36,25.47-0.23c1.82-1.32,3.13-0.52,4.61-0.07c5.01,1.49,10.01,2.39,15.07,0.3c2.2-0.91,4.19-0.26,6.28,0.46
			c12.91,4.51,25.51,3.31,38.57-0.48c6.91-2.01,14.88,1,22.26-1.3c0.41-0.13,1.1,0.65,1.66,1c9.95,6.2,19.66,5.14,28.52-2.8
			c6.53-5.86,11.75-12.66,15.84-20.37c2.74-7.14,5.99-14.2,5.85-22.04c-0.06-3.46,0.99-4.66,4.44-5.52
			c13.91-3.47,24.74-10.59,28.06-25.77c2.49-11.42-4.35-28.86-19.14-30.01c-10.38-0.8-19.13,6.34-18.27,15.53
			c0.64,6.92,6.25,11.33,12.35,9.69c1.69-0.45,3.46-1.29,3.2-3.25c-0.35-2.58-2.51-1.71-3.94-1.19c-3.62,1.3-5.35-0.79-6.6-3.53
			c-1.85-4.05,0.29-8.96,4.7-11.22c10.35-5.3,22.09,2.35,23.33,15.19c1.4,14.58-7.62,26.15-23.37,30.11
			c-2.89,0.73-4.41,0.86-5.25-3.01c-1.76-8.06-5.98-14.53-15.06-15.92c-1.89-0.29-2.24-1.73-3.05-2.92
			c-3.2-4.66-7.56-7.24-13.22-6.05c-3.8,0.79-5.87,0.09-6.4-3.95c-0.12-0.95-0.64-1.92-1.19-2.73
			C272.82,320.85,273.88,319.8,276.38,318.72z M254.94,55.96C266,31.3,290.82,13.15,319.43,15.11c13.21,0.91,25.3,5.8,35.44,14.38
			c18.52,15.68,27.45,36.15,26.95,60.17c-0.42,19.91-7.99,37.34-22.25,52.17c-3.66-6.54-6.32-13.19-10.57-18.92
			c-6.29-8.31-12.58-16.61-20.27-23.74c-17.03-15.79-36.34-27.61-58.71-34.22c-3.8-2.66-8.38-2.88-12.66-4.02
			C254.53,60.18,253.57,59.02,254.94,55.96z M57.12,79.88C60,49.8,80.9,22.11,112.86,16.47c19.62-3.47,37.77,1.73,52.83,15.66
			c8.3,7.69,14.71,16.59,18.78,27.5c-5.32,1.02-10.19,3.19-15.53,3.39c-0.91,2.27-3.22,2.2-5,2.8c-30,10.1-54.49,27.72-73.05,53.44
			c-0.79,1.08-1.52,2.19-2.87,2.66c-2.87,5.42-5.85,10.8-8.58,16.3c-1.34,2.7-2.28,2.61-4.14,0.41
			C60.9,121.6,55.02,101.79,57.12,79.88z M154.37,334.99c2.35,0.05,4.67,0.13,4.35,2.57c-0.27,2.01-0.29,5.69-2.76,5.46
			c-2.56-0.24-6.91-1.1-7.27-3.82C148.32,336.42,152.05,335.44,154.37,334.99z M168.13,411.96c-6.58,2.91-12.02-0.51-16.53-4.13
			c-14.28-11.47-21.13-26.81-21.64-45.08c-0.08-2.74,0.79-5.22,1.36-8.24c2.48,2.79,2.59,6.89,7.36,7.58
			c-1.96-3.86-4.21-6.96-3.76-11.01c0.23-2,0.68-3.44,2.6-4.38c2.11-1.04,3.71-1.87,3.51,1.76c-0.26,4.53,2.43,7.22,7.17,10.02
			c-1.94-4.25-4.36-6.96-4.84-10.58c-0.32-2.5,0.5-3,2.62-2.74c5.93,0.72,9.32,4.2,8.96,10.08c-0.83,13.71,1.58,26.74,7.01,39.34
			c1.94,4.49,4.3,8.64,7.5,12.24C171.85,409.51,170.8,410.78,168.13,411.96z M198.6,404.41c-4.9-9.7-4.82-8.58-8.45-9.2
			c1.99,2.52,3.72,4.7,4.49,7.32c0.51,1.74,1.04,3.75-0.47,5.18c-1.54,1.45-3.68,1.7-5.67,1.17c-2.31-0.62-1.23-2.74-1.51-4.24
			c-0.74-3.99-2.14-7.37-6.94-7.62c2.19,2.71,3.99,5.58,4.6,9.17c0.43,2.54-0.65,3.04-2.7,2.63c-4.87-0.96-8.3-4.08-11.25-7.78
			c-1.56-1.94-0.42-3.84,0.64-5.53c5.01-8.02,18.47-11.81,27.14-7.7C203.62,390.24,203.68,399.64,198.6,404.41z M233.29,405.28
			c1.57,2.63,1,3.34-1.59,3.97c-3.71,0.91-7.38,1.96-10.47,1.77c-2.77-0.07-4.72-0.11-6.71-0.6c-2.73-0.68-6.01-0.5-8-2.4
			c-2.75-2.63,1.17-4.75,1.71-7.21c1.42-6.56,0.15-12.38-3.73-17.39c-6.74-8.69-10.14-18.5-11.77-29.21
			c-0.36-2.37,0.1-3.72,1.72-5.15c13.58-11.97,35.63-11.62,48.81,0.67c2.31,2.16,3.25,4.44,2.55,7.52
			c-2.08,9.18-5.38,17.81-11.16,25.33C229.04,389.86,228.67,397.53,233.29,405.28z M258.74,407.59c-1.29,0.45-2.71,0.83-3.85,0.05
			c-1.49-1.01-0.17-2.39-0.12-3.63c0.13-3.04,2.63-4.89,3.85-8.07c-5.16,1.21-6.07,4.86-6.64,8.84c-0.22,1.56,0.93,4.45-2.15,3.85
			c-2.43-0.48-6.03-0.38-5.86-4.67c0.14-3.58,2.3-6.14,4.06-8.93l-0.06-0.07c-5.87-0.09-5.03,5.78-7.75,8.89
			c-4.31-3.86-3.9-8.78-2.76-13.33c1-3.96,4.98-4.25,8.55-4.63c8.91-0.96,16.28,1.46,21.64,9.05c1.77,2.51,1.65,4.4-0.52,6.55
			C264.63,403.97,262.15,406.4,258.74,407.59z M283.77,334.44c2.92-0.04,5.42,1.34,7.01,4.42c-2.08,2.15-5.19,2.98-7.7,3.52
			c-2.82,0.61-2.06-3.19-2.69-4.99C279.41,334.6,282.35,334.46,283.77,334.44z M283.95,365.77c0.33-3.47,0.06-6.99,0.05-10.48
			c-0.01-7.44,0.61-8.2,7.73-10.37c2.96-0.9,4.75-0.9,3.45,3c-0.7,2.12-1.19,4.32-1.9,6.97c3.46-1.08,4.2-3.5,4.71-6.11
			c0.28-1.44-0.68-3.89,2.11-3.49c1.96,0.28,3.66,1.33,3.93,3.85c0.38,3.67-0.76,6.86-2.53,9.95c-0.32,0.55-0.34,1.27-0.5,1.91
			c3.75-0.34,4.02-4.02,6.12-6.58c3.01,4.34,2.37,9.13,1.7,13.34c-2.56,16-8.82,30.25-22.37,40.14c-4.93,3.6-10.42,5.97-16.69,2.53
			c-2.05-1.12-2.73-1.77-0.88-3.93C278.93,394.82,282.57,380.67,283.95,365.77z M278.68,360.87c0.23,9.58-2.57,18.99-6.16,27.98
			c-0.89,2.26-1.89,2.19-3.49,0.31c-5.25-6.15-12.12-9.2-20.15-9.07c-4.38,0.07-5.13-0.8-3.08-4.9c5.65-11.25,8.61-23,4.52-35.56
			c-0.2-0.61-0.44-1.22-0.69-1.9c-0.36,0.34-0.59,0.57-0.83,0.78c-1.81,1.64,0.72,5.52-2.15,5.8c-1.74,0.18-3.68-2.52-5.67-3.68
			c-17.02-9.99-33.46-8.35-49.42,2.68c-1.03-1.31-0.33-3.36-2.45-4.69c-2.75,8.64-3.12,17.08-0.48,25.63
			c1.42,4.61,2.8,9.23,5.24,13.45c1.24,2.15,0.97,3.47-1.9,3.3c-9.79-0.58-17.76,3.02-23.97,10.87c-7.25-12.71-7.94-26.2-6.75-39.85
			c0.76-8.63,4.16-16.69,6.81-24.89c1.16-3.61,2.92-4.46,6.68-3.16c16.49,5.71,33.61,7.81,50.94,6.88
			c12.55-0.67,25.07-2.51,36.96-6.96c3.77-1.41,5.65-0.57,7.43,3.03C275.38,337.66,278.41,349.09,278.68,360.87z M240.97,322.08
			c-7.54,1.25-15.07,2.31-22.79,2.01c-34.01-0.84-64.14-11.87-90.47-33.72c-21.16-17.56-36.2-39.22-45.37-64.96
			c-5.34-15-7.64-30.71-6.19-46.55c2.33-25.53,12.31-47.86,29.48-67.13c20.39-22.88,45.81-36.9,75.22-44.12
			c14.71-3.6,29.74-5.45,44.87-4.51c30.78,1.91,59.46,10.64,84.45,29.11c26.38,19.49,43.87,45.15,49.56,77.82
			c3.94,22.68-0.09,44.61-9.09,65.62c-8.7,20.35-21.67,37.81-38.27,52.3C291.83,305.88,268.09,317.61,240.97,322.08z"/>
		<path class="st2" d="M130.11,388.91c4.61,9.76,10.76,18.34,19.74,24.54c9.3,6.42,16.37,6.36,25.47-0.24
			c1.82-1.32,3.12-0.51,4.61-0.07c5.01,1.5,10.01,2.4,15.07,0.3c2.2-0.91,4.2-0.26,6.28,0.46c12.92,4.51,25.51,3.31,38.57-0.49
			c6.91-2.01,14.88,1.01,22.26-1.3c0.41-0.13,1.1,0.65,1.66,1c9.95,6.2,19.66,5.15,28.52-2.8c6.53-5.86,11.75-12.65,15.84-20.37
			c19.18,1.23,38.25,3.15,56.71,8.89c3.35,1.04,7.66,2.32,7.58,6.09c-0.08,3.64-4.28,4.94-7.69,6.03
			c-14.92,4.74-30.35,6.39-45.81,8.17c-16.13,1.86-32.36,2.09-48.49,3.75c-0.66,0.07-1.33,0.1-1.99,0.08
			c-15.46-0.44-30.9,1.06-46.33,0.87c-15.27-0.19-30.59-0.23-45.82-1.06c-26.57-1.45-53.21-2.78-79.42-7.89
			c-6.16-1.2-12.35-2.61-18.04-5.49c-1.81-0.91-3.66-1.87-3.75-4.23c-0.1-2.65,1.92-3.71,3.9-4.64c7.9-3.7,16.4-5.11,24.9-6.53
			c7.66-1.28,15.28-2.9,23.09-3.02C128.45,390.95,129.46,390.21,130.11,388.91z"/>
		<path class="st3" d="M359.73,170.03c-5.69-32.67-23.18-58.33-49.56-77.82c-24.99-18.47-53.67-27.2-84.45-29.11
			c-15.13-0.94-30.16,0.91-44.87,4.51c-29.41,7.22-54.83,21.24-75.22,44.12c-17.17,19.27-27.15,41.6-29.48,67.13
			c-1.45,15.84,0.85,31.55,6.19,46.55c9.17,25.74,24.21,47.4,45.37,64.96c26.33,21.85,56.46,32.88,90.47,33.72
			c7.72,0.3,15.25-0.76,22.79-2.01c27.12-4.47,50.86-16.2,71.4-34.13c16.6-14.49,29.57-31.95,38.27-52.3
			C359.64,214.64,363.67,192.71,359.73,170.03z M102.92,146.21c-0.12,0.06-0.24,0.13-0.37,0.19c-0.07-0.25-0.26-0.58-0.17-0.76
			c0.11-0.19,0.47-0.25,0.73-0.37c0.06,0.25,0.12,0.48,0.19,0.73C103.18,146.08,103.05,146.14,102.92,146.21z M147.03,95.42
			c38.5-22.7,78.53-25.27,120.04-10.26c-65.27-12.65-119.92,4.56-162.03,57.27C105.37,132.86,127.99,106.64,147.03,95.42z
			 M110.9,195.48c4.13-11.68,12.01-20.44,22.08-27.37c0.91-0.86,1.81-1.71,2.97-2.8c-1.33-0.19-2.37-0.34-3.79-0.54
			c0.64-0.46,0.96-0.75,1.33-0.93c10.86-5.37,22.07-9.57,34.39-6.71c8.83,2.05,16.23,6.47,19.13,15.96
			c7.51,9.89,8.42,21.45,7.53,33.11c-0.71,9.36-3.48,18.21-10.4,25.26c-4.77,4.86-10.54,7.86-17.11,8.34
			c-14.42,1.04-28.52-0.74-41.72-7.14C108.74,224.61,104.97,212.27,110.9,195.48z M320.79,267.77c-0.89,2.31-3.1,1.06-4.8,0.66
			c-22.99-5.42-46.2-9.25-69.9-9.48c-0.31,0.2-0.36,0.46-0.15,0.76c1.81,2.18,4.57,1.67,6.86,2.19c18.18,4.11,36.01,9.34,53.4,16.04
			c0.93,0.36,1.91,0.64,2.77,1.13c1.41,0.79,3.4,1.58,2.4,3.63c-0.92,1.89-2.71,0.71-3.98,0.18c-13.99-5.83-28.46-10.2-43.13-13.94
			c-6.91-1.76-13.86-3.34-20.79-4.99c-5.45,6.51-12.03,11.07-20.73,11.93c-0.04,4.82,0.02,9.65-0.17,14.47
			c-0.13,3.36,1.2,3.81,4.24,3.23c5.75-1.09,10.81-3.24,14.73-7.68c0.89-1.01,1.76-2.44,3.21-1.43c1.75,1.2,0.62,2.58-0.32,3.81
			c-2.84,3.7-6.69,5.96-10.99,7.43c-11.92,4.07-23.23,3.09-33.61-4.49c-1.06-0.78-1.93-1.83-2.83-2.81
			c-1.09-1.19-1.86-2.79-0.46-3.93c1.31-1.07,2.33,0.4,3.21,1.39c3.94,4.42,9.03,6.53,14.71,7.76c3.05,0.65,3.88-0.32,3.78-3.19
			c-0.17-4.82-0.13-9.65-0.18-14.47c-8.99-1.14-15.89-5.57-20.74-13.21c-8.16,3.33-16.93,4.27-25.34,6.65
			c-13.1,3.7-26.09,7.66-38.7,12.83c-1.37,0.57-2.98,1.5-3.96-0.24c-0.96-1.69,0.25-2.8,1.8-3.41
			c21.04-8.23,42.56-14.75,64.86-18.58c-0.24-0.74-0.47-1.48-0.71-2.22c-23.61,0.97-46.9,4.17-69.85,9.85
			c-0.64,0.16-1.3,0.34-1.96,0.34c-1.25,0.01-2.95,0.57-3.28-1.29c-0.28-1.6,1.01-2.33,2.41-2.65c5.17-1.2,10.31-2.56,15.53-3.49
			c18.93-3.4,37.89-6.7,57.25-6.36c0.23-1.05,0.45-2.1,0.68-3.15c-20.62-0.6-41.18,0.03-61.56,3.6c-1.67,0.3-3.68,0.72-4.02-1.52
			c-0.29-1.97,1.79-2.02,3.17-2.45c5.93-1.81,12.13-1.82,18.21-2.49c15.73-1.75,31.55-1.35,47.35-1.15
			c9.95-8.72,30.19-10.43,43.44,0.01c20.45-0.52,40.85,0.19,61.11,3.16c2.44,0.35,7.19-0.36,6.73,3.19
			c-0.44,3.4-4.34,1.02-6.74,0.76c-19.3-2.04-38.6-4.29-58.08-2.77c0.19,0.9,0.37,1.81,0.56,2.72c6.6,0.63,13.19,1.31,19.8,1.88
			c17.39,1.49,34.52,4.56,51.5,8.52C319.13,264.87,321.8,265.13,320.79,267.77z M311.54,231.2c-12.91,5.98-26.5,8.08-40.65,6.98
			c-16.46-1.28-25.46-14.42-27.88-28.64c-2.31-13.57-0.06-26.34,5.99-38.56c0.47-0.78,0.89-1.67,2.05-0.93
			c1.37-6.68,6.63-10.08,12.02-12.5c13.42-6.03,26.2-1.83,38.67,3.75c3.18,1.42-1.71,3.46,0.29,5.04
			c14.47,6.64,22.19,18.81,25.69,33.53C331.69,216.54,323.54,225.64,311.54,231.2z"/>
		<path class="st3" d="M244.43,288.28c-2.84,3.7-6.69,5.96-10.99,7.43c-11.92,4.07-23.23,3.09-33.61-4.49
			c-1.06-0.78-1.93-1.83-2.83-2.81c-1.09-1.19-1.86-2.79-0.46-3.93c1.31-1.07,2.33,0.4,3.21,1.39c3.94,4.42,9.03,6.53,14.71,7.76
			c3.05,0.65,3.88-0.32,3.78-3.19c-0.17-4.82-0.13-9.65-0.18-14.47c1.56-0.03,3.12-0.06,4.68-0.09c-0.04,4.82,0.02,9.65-0.17,14.47
			c-0.13,3.36,1.2,3.81,4.24,3.23c5.75-1.09,10.81-3.24,14.73-7.68c0.89-1.01,1.76-2.44,3.21-1.43
			C246.5,285.67,245.37,287.05,244.43,288.28z"/>
		<path class="st3" d="M270.02,64.95c-3.8-2.66-8.38-2.88-12.67-4.02c-2.83-0.75-3.78-1.91-2.41-4.98
			C266,31.3,290.82,13.15,319.43,15.11c13.2,0.91,25.3,5.79,35.44,14.38c18.51,15.68,27.45,36.15,26.95,60.17
			c-0.42,19.91-7.99,37.34-22.25,52.16c-3.66-6.53-6.33-13.18-10.58-18.91c5.94-10.16,8.6-21.03,8.09-32.86
			c-0.73-16.88-7.46-30.57-21.36-40.08c-21.09-14.44-48.06-8.92-64.85,11.71C270.07,62.67,269.93,63.76,270.02,64.95z"/>
		<path class="st3" d="M88.02,121.92c-2.88,5.43-5.85,10.81-8.59,16.31c-1.34,2.69-2.28,2.61-4.14,0.41
			C60.9,121.6,55.02,101.79,57.12,79.88C60,49.8,80.9,22.11,112.86,16.47c19.63-3.47,37.77,1.73,52.83,15.67
			c8.3,7.68,14.71,16.58,18.78,27.5c-5.32,1.02-10.19,3.19-15.53,3.39c-3-2.86-5.83-5.95-9.04-8.56
			c-13.13-10.67-27.81-15.06-44.47-10.11c-21.65,6.42-33.3,25.7-34.44,46.84C80.41,102.12,83.88,112.09,88.02,121.92z"/>
		<path class="st4" d="M270.02,64.95c-0.09-1.19,0.05-2.28,0.86-3.27c16.79-20.62,43.76-26.15,64.85-11.71
			c13.9,9.52,20.63,23.2,21.36,40.08c0.51,11.83-2.16,22.7-8.09,32.86c-6.29-8.32-12.58-16.61-20.27-23.75
			C311.7,83.38,292.39,71.56,270.02,64.95z"/>
		<path class="st3" d="M249.63,337.73c-0.36,0.34-0.59,0.57-0.83,0.78c-1.81,1.64,0.71,5.52-2.15,5.8
			c-1.75,0.17-3.68-2.52-5.67-3.69c-17.03-9.98-33.46-8.34-49.42,2.68c-1.03-1.31-0.33-3.36-2.45-4.7
			c-2.76,8.64-3.12,17.09-0.48,25.64c1.42,4.6,2.8,9.23,5.23,13.45c1.24,2.15,0.97,3.47-1.9,3.3c-9.79-0.58-17.76,3.02-23.96,10.87
			c-7.26-12.71-7.94-26.19-6.75-39.85c0.75-8.63,4.15-16.69,6.8-24.89c1.16-3.6,2.93-4.46,6.68-3.16
			c16.49,5.71,33.61,7.81,50.94,6.88c12.55-0.67,25.07-2.51,36.96-6.96c3.77-1.41,5.65-0.57,7.43,3.03
			c5.31,10.74,8.34,22.17,8.61,33.95c0.22,9.58-2.58,18.99-6.16,27.98c-0.9,2.25-1.89,2.19-3.49,0.31
			c-5.25-6.16-12.12-9.21-20.15-9.08c-4.39,0.07-5.13-0.8-3.08-4.89c5.65-11.26,8.61-23,4.52-35.56
			C250.12,339.02,249.88,338.41,249.63,337.73z M269.35,381.91c6.76-15.82,5.63-31.29-2.61-46.35
			C271,350.81,272.34,366.2,269.35,381.91z M169.69,383.07c-3.11-15.25-1.63-30.3,1.95-45.28
			C163.73,352.59,163.22,367.69,169.69,383.07z"/>
		<path class="st4" d="M88.02,121.92c-4.14-9.83-7.62-19.8-7.03-30.73c1.14-21.13,12.79-40.41,34.44-46.84
			c16.66-4.94,31.34-0.55,44.47,10.11c3.21,2.61,6.04,5.69,9.04,8.56c-0.91,2.27-3.22,2.21-5,2.8c-30,10.1-54.49,27.72-73.05,53.43
			C90.1,120.34,89.37,121.45,88.02,121.92z"/>
		<path class="st5" d="M221.23,411.02c-2.78-0.07-4.73-0.11-6.72-0.6c-2.73-0.68-6.01-0.49-8-2.4c-2.75-2.63,1.18-4.75,1.71-7.21
			c1.42-6.56,0.16-12.38-3.73-17.38c-6.74-8.69-10.14-18.5-11.77-29.21c-0.36-2.37,0.1-3.72,1.73-5.15
			c13.58-11.97,35.63-11.63,48.8,0.67c2.32,2.16,3.25,4.44,2.55,7.52c-2.08,9.17-5.37,17.81-11.16,25.33
			c-5.6,7.28-5.98,14.95-1.36,22.69c1.57,2.64,1,3.35-1.59,3.98C227.99,410.16,224.32,411.21,221.23,411.02z"/>
		<path class="st3" d="M301,361c3.75-0.34,4.02-4.03,6.12-6.59c3,4.34,2.37,9.13,1.7,13.34c-2.56,16-8.82,30.25-22.37,40.14
			c-4.93,3.6-10.42,5.97-16.69,2.53c-2.05-1.12-2.73-1.77-0.88-3.93c10.04-11.68,13.69-25.83,15.07-40.73
			c0.32-3.46,0.05-6.98,0.05-10.48c-0.01-7.44,0.61-8.2,7.73-10.37c2.96-0.9,4.74-0.9,3.45,3c-0.7,2.12-1.19,4.32-1.91,6.97
			c3.47-1.08,4.21-3.5,4.71-6.11c0.28-1.44-0.68-3.89,2.11-3.49c1.96,0.28,3.67,1.33,3.93,3.84c0.39,3.68-0.76,6.86-2.53,9.95
			C301.18,359.64,301.16,360.36,301,361c-0.44,0.11-0.87,0.24-1.31,0.36c0.08,0.13,0.16,0.25,0.25,0.38
			C300.3,361.5,300.65,361.25,301,361z M291.7,356.38c0.02,0.11,0.01,0.26,0.07,0.31c0.1,0.07,0.25,0.06,0.37,0.08
			c-0.03-0.18-0.07-0.35-0.1-0.53C291.93,356.28,291.82,356.33,291.7,356.38z"/>
		<path class="st3" d="M131.32,354.51c2.48,2.79,2.6,6.89,7.36,7.58c-1.96-3.86-4.21-6.96-3.76-11.01c0.22-2.01,0.68-3.44,2.6-4.39
			c2.11-1.04,3.71-1.87,3.5,1.76c-0.25,4.53,2.44,7.23,7.17,10.03c-1.93-4.26-4.35-6.96-4.83-10.58c-0.33-2.5,0.5-3,2.62-2.74
			c5.92,0.72,9.31,4.2,8.96,10.08c-0.83,13.71,1.58,26.74,7.01,39.34c1.93,4.49,4.29,8.65,7.5,12.25c2.39,2.69,1.35,3.96-1.32,5.14
			c-6.58,2.91-12.02-0.51-16.53-4.13c-14.28-11.46-21.13-26.81-21.64-45.08C129.88,360.01,130.75,357.53,131.32,354.51z"/>
		<path class="st6" d="M180.02,396.99c2.21,2.73,4.02,5.6,4.63,9.2c0.43,2.55-0.65,3.04-2.7,2.63c-4.86-0.96-8.29-4.09-11.25-7.78
			c-1.55-1.94-0.42-3.84,0.64-5.53c5.01-8.02,18.47-11.81,27.14-7.7c5.13,2.43,5.2,11.83,0.12,16.6c-4.9-9.7-4.82-8.58-8.46-9.2
			c1.99,2.52,3.73,4.7,4.5,7.33c0.51,1.74,1.03,3.75-0.48,5.18c-1.53,1.45-3.67,1.69-5.66,1.16c-2.31-0.61-1.23-2.73-1.51-4.24
			c-0.74-4.01-2.15-7.4-7.01-7.62c-0.13-0.08-0.26-0.17-0.38-0.25C179.74,396.84,179.88,396.91,180.02,396.99z"/>
		<path class="st6" d="M247.97,394.96c-5.87-0.09-5.03,5.78-7.75,8.89c-4.31-3.86-3.9-8.79-2.75-13.33c1-3.96,4.97-4.25,8.55-4.63
			c8.91-0.96,16.28,1.45,21.64,9.05c1.77,2.51,1.65,4.41-0.52,6.55c-2.5,2.48-4.98,4.91-8.4,6.1c-1.29,0.45-2.7,0.83-3.85,0.05
			c-1.49-1.01-0.17-2.39-0.12-3.62c0.13-3.04,2.63-4.89,3.85-8.07c-5.16,1.2-6.07,4.86-6.64,8.83c-0.22,1.56,0.92,4.46-2.15,3.85
			c-2.43-0.48-6.03-0.38-5.86-4.67c0.14-3.57,2.31-6.14,4.06-8.93c0.14-0.16,0.27-0.32,0.41-0.48
			C248.28,394.68,248.12,394.82,247.97,394.96z"/>
		<path class="st3" d="M154.37,334.99c2.36,0.05,4.68,0.13,4.35,2.57c-0.27,2.01-0.29,5.69-2.76,5.46c-2.56-0.24-6.91-1.1-7.27-3.82
			C148.32,336.42,152.05,335.44,154.37,334.99z"/>
		<path class="st3" d="M290.78,338.86c-2.07,2.14-5.19,2.98-7.7,3.52c-2.82,0.61-2.06-3.19-2.69-4.99c-0.98-2.8,1.96-2.93,3.38-2.95
			C286.69,334.4,289.19,335.78,290.78,338.86z"/>
		<path class="st7" d="M187.01,173.09c7.52,9.89,8.42,21.45,7.53,33.11c-0.71,9.35-3.48,18.21-10.4,25.26
			c-4.77,4.86-10.54,7.86-17.11,8.33c-14.42,1.05-28.52-0.73-41.72-7.14c-16.57-8.04-20.34-20.39-14.4-37.18
			c4.13-11.67,12.01-20.44,22.08-27.37c6.64-1.2,13.25-2.73,19.94-3.52C165.28,163.12,176.95,165.03,187.01,173.09z M143.45,202.99
			c-4.19,10.16-1.2,20.31,7.25,25.9c8.46,5.59,19.8,4.44,26.99-2.74c7.05-7.04,7.98-17.72,2.44-26
			c-4.27-6.38-14.95-12.24-25.11-7.48c2.47,3.77,3.55,7.71-0.2,11.23C151.03,207.44,147.22,206.1,143.45,202.99z"/>
		<path class="st7" d="M302.03,166.34c14.47,6.64,22.2,18.82,25.7,33.53c3.96,16.67-4.18,25.77-16.19,31.33
			c-12.91,5.98-26.5,8.08-40.64,6.98c-16.46-1.28-25.46-14.42-27.89-28.65c-2.31-13.57-0.06-26.33,5.99-38.55
			c0.79-0.08,1.75,0.21,2.06-0.93c0,0-0.01,0.01-0.01,0.01c8-4.73,16.53-7.36,25.94-7.39C285.55,162.65,293.76,164.58,302.03,166.34
			z M270.92,230.93c13.92-0.11,24.45-12.54,21.69-24.48c-0.48-2.1-0.5-3.79-4.05-2.7c-6.56,2.02-11.42-3.3-9.03-9.7
			c1.1-2.93,0.04-3.46-2.1-3.97c-8.5-2.03-15.92,0.01-21.71,6.57c-5.7,6.46-6.89,13.97-3.29,21.83
			C256.19,226.71,263.07,230.46,270.92,230.93z"/>
		<path class="st5" d="M267.07,85.16c-65.27-12.65-119.92,4.57-162.02,57.27c0.32-9.57,22.95-35.78,41.99-47.01
			C185.53,72.72,225.56,70.15,267.07,85.16z"/>
		<path class="st8" d="M246.09,258.95c0.04-1.62,0.08-3.23,0.13-4.85c-0.19-0.91-0.37-1.82-0.56-2.72c-1-1.45-2.01-2.89-3.02-4.34
			c-13.25-10.44-33.49-8.73-43.44-0.01c-1.05,1.33-2.1,2.67-3.15,4.01c-0.23,1.05-0.45,2.1-0.68,3.15c-0.03,1.2-0.07,2.4-0.1,3.6
			c0.24,0.74,0.47,1.48,0.71,2.22c0.44,0.92,0.89,1.84,1.34,2.75c4.85,7.64,11.75,12.07,20.74,13.21c1.56-0.03,3.12-0.06,4.68-0.09
			c8.7-0.86,15.28-5.42,20.73-11.93c0.82-1.42,1.65-2.83,2.47-4.24C245.73,259.41,245.78,259.15,246.09,258.95z M233.04,255.28
			c-6.21,9.68-18.57,10.51-26.32,1.93c-4.28-4.73-3.21-8.97,2.95-10.9c3.14-0.98,6.41-1.79,9.74-1.23
			c4.17-0.53,7.92,0.57,11.58,2.37C234.82,249.33,234.97,252.28,233.04,255.28z"/>
		<path class="st9" d="M187.01,173.09c-10.05-8.06-21.73-9.97-34.08-8.51c-6.69,0.79-13.3,2.32-19.94,3.52
			c0.9-0.85,1.81-1.71,2.96-2.8c-1.32-0.19-2.37-0.34-3.78-0.54c0.64-0.45,0.96-0.75,1.33-0.93c10.86-5.36,22.07-9.56,34.39-6.71
			C176.71,159.18,184.11,163.6,187.01,173.09z"/>
		<path class="st9" d="M302.03,166.34c-8.27-1.76-16.47-3.69-25.04-3.66c-9.41,0.03-17.94,2.66-25.94,7.39
			c1.37-6.7,6.63-10.09,12.02-12.51c13.42-6.03,26.2-1.83,38.67,3.75C304.92,162.72,300.03,164.76,302.03,166.34z"/>
		<path class="st10" d="M195.37,254.19c-0.03,1.2-0.06,2.4-0.09,3.6c-23.61,0.97-46.91,4.17-69.85,9.85
			c-0.64,0.16-1.3,0.33-1.96,0.34c-1.26,0.01-2.95,0.56-3.28-1.29c-0.28-1.6,1.01-2.34,2.4-2.66c5.17-1.19,10.31-2.55,15.53-3.49
			C157.05,257.15,176.01,253.85,195.37,254.19z"/>
		<path class="st10" d="M246.09,258.95c0.04-1.62,0.09-3.23,0.13-4.85c6.6,0.63,13.2,1.31,19.8,1.88
			c17.39,1.49,34.52,4.56,51.5,8.52c1.61,0.37,4.28,0.64,3.27,3.27c-0.89,2.31-3.1,1.06-4.79,0.66
			C293,263.01,269.79,259.18,246.09,258.95z"/>
		<path class="st10" d="M195.98,260.01c0.45,0.92,0.89,1.83,1.34,2.75c-8.15,3.32-16.93,4.27-25.33,6.64
			c-13.1,3.7-26.1,7.66-38.7,12.84c-1.37,0.56-2.98,1.5-3.97-0.24c-0.96-1.69,0.26-2.8,1.81-3.41
			C152.16,270.36,173.68,263.84,195.98,260.01z"/>
		<path class="st10" d="M243.47,263.95c0.82-1.41,1.65-2.82,2.47-4.24c1.81,2.18,4.57,1.68,6.86,2.19
			c18.18,4.11,36.01,9.34,53.4,16.04c0.93,0.36,1.91,0.64,2.77,1.12c1.41,0.79,3.39,1.59,2.39,3.64c-0.92,1.89-2.71,0.7-3.97,0.18
			c-14-5.83-28.46-10.21-43.13-13.94C257.35,267.18,250.4,265.6,243.47,263.95z"/>
		<path class="st10" d="M199.2,247.03c-1.05,1.34-2.1,2.67-3.15,4.01c-20.63-0.6-41.18,0.03-61.56,3.61
			c-1.67,0.29-3.68,0.72-4.02-1.52c-0.29-1.97,1.78-2.02,3.17-2.44c5.93-1.82,12.13-1.82,18.2-2.5
			C167.58,246.43,183.4,246.83,199.2,247.03z"/>
		<path class="st10" d="M245.66,251.38c-1.01-1.45-2.02-2.89-3.03-4.34c20.45-0.52,40.85,0.19,61.11,3.16
			c2.44,0.36,7.19-0.36,6.73,3.19c-0.44,3.4-4.33,1.02-6.73,0.76C284.44,252.11,265.14,249.86,245.66,251.38z"/>
		<path class="st3" d="M103.3,146.01c-0.25,0.14-0.5,0.26-0.75,0.39c-0.07-0.25-0.26-0.58-0.17-0.76c0.11-0.19,0.47-0.25,0.73-0.37
			C103.17,145.52,103.23,145.76,103.3,146.01z"/>
		<path class="st9" d="M251.06,170.05c-0.31,1.15-1.27,0.85-2.06,0.93C249.47,170.2,249.89,169.3,251.06,170.05z"/>
		<path class="st6" d="M269.35,381.91c3-15.71,1.65-31.11-2.61-46.35C274.97,350.62,276.1,366.09,269.35,381.91z"/>
		<path class="st6" d="M169.69,383.07c-6.48-15.38-5.96-30.48,1.95-45.28C168.06,352.77,166.58,367.83,169.69,383.07z"/>
		<path class="st1" d="M291.7,356.38c0.12-0.05,0.23-0.09,0.35-0.14c0.03,0.18,0.07,0.35,0.1,0.53c-0.13-0.02-0.28-0.01-0.37-0.08
			C291.71,356.64,291.73,356.48,291.7,356.38z"/>
		<path class="st1" d="M301,361c-0.35,0.25-0.71,0.49-1.06,0.74c-0.08-0.13-0.16-0.25-0.25-0.38
			C300.13,361.24,300.56,361.12,301,361C301,361,301,361,301,361z"/>
		<path class="st1" d="M180.02,396.99c-0.14-0.07-0.28-0.15-0.42-0.22c0.13,0.08,0.26,0.17,0.38,0.25
			C179.99,397.02,180.02,396.99,180.02,396.99z"/>
		<path class="st1" d="M247.97,394.96c0.16-0.14,0.32-0.28,0.47-0.42c-0.14,0.16-0.27,0.32-0.41,0.48
			C248.03,395.03,247.97,394.96,247.97,394.96z"/>
		<path class="st8" d="M143.45,202.99c3.76,3.12,7.58,4.45,11.37,0.9c3.76-3.52,2.67-7.45,0.2-11.23
			c10.16-4.76,20.84,1.1,25.11,7.48c5.54,8.28,4.6,18.97-2.44,26c-7.19,7.18-18.53,8.34-26.99,2.74
			C142.25,223.29,139.26,213.15,143.45,202.99z"/>
		<path class="st8" d="M270.92,230.93c-7.84-0.47-14.73-4.23-18.48-12.44c-3.59-7.86-2.41-15.37,3.29-21.83
			c5.79-6.57,13.2-8.6,21.71-6.57c2.14,0.51,3.2,1.03,2.1,3.97c-2.39,6.4,2.47,11.72,9.03,9.7c3.54-1.09,3.56,0.6,4.05,2.7
			C295.36,218.39,284.84,230.82,270.92,230.93z"/>
		<path class="st11" d="M219.41,245.08c4.16-0.53,7.92,0.57,11.58,2.37c3.82,1.88,3.98,4.83,2.05,7.83
			c-6.21,9.68-18.57,10.5-26.32,1.93c-4.28-4.73-3.21-8.98,2.95-10.9C212.81,245.33,216.08,244.52,219.41,245.08z"/>
	</g>
	<g>
		<g>
			<path class="st8" d="M190,288c0.49,0.47,1.2,0.55,1.84,0.69c0.66,0.13,1.33,0.21,2,0.28c1.34,0.13,2.68,0.25,4.03,0.29
				c2.69,0.13,5.37,0.19,8.05,0.18c5.35,0,10.68-0.23,15.95-0.74c5.27-0.53,10.48-1.35,15.55-2.74c5.08-1.39,9.97-3.38,14.57-6.47
				c-3.15,4.62-8.08,7.96-13.26,10.18c-5.22,2.22-10.8,3.46-16.37,4c-5.58,0.54-11.19,0.42-16.71-0.33
				c-2.76-0.38-5.5-0.92-8.19-1.68c-1.34-0.41-2.67-0.82-3.97-1.37c-0.65-0.28-1.29-0.57-1.91-0.91c-0.31-0.18-0.61-0.36-0.9-0.58
				C190.41,288.59,190.1,288.35,190,288z"/>
		</g>
		<g>
			<polygon class="st7" points="196.77,291 208.29,291 201.89,315.65 			"/>
			<path class="st8" d="M207,292l-5,19.25L198,292H207 M209.59,290H207h-9h-2.46l0.5,2.41l4,19.25l1.74,8.38l2.15-8.29l5-19.25
				L209.59,290L209.59,290z"/>
		</g>
		<g>
			<defs>
				<polygon id="SVGID_1_" points="202,311.25 207,292 198,292 				"/>
			</defs>
			<clipPath id="SVGID_2_">
				<use xlink:href="#SVGID_1_"  style="overflow:visible;"/>
			</clipPath>
			<path class="st12" d="M197,303c0,0,2.5,2.5,5,0s8-2,8-2l2,12c0,0-5,8-8,8s-17-17-16-17S197,303,197,303z"/>
		</g>
		<g>
			<polygon class="st7" points="231.32,290.24 242.77,287.69 237.04,317.29 			"/>
			<path class="st8" d="M241.5,289l-4.5,23.25L232.5,291L241.5,289 M244.04,286.39l-2.98,0.66l-9,2l-1.93,0.43l0.41,1.94l4.5,21.25
				l2.04,9.66l1.88-9.69l4.5-23.25L244.04,286.39L244.04,286.39z"/>
		</g>
		<g>
			<defs>
				<polygon id="SVGID_3_" points="237,312.25 241.5,289 232.5,291 				"/>
			</defs>
			<clipPath id="SVGID_4_">
				<use xlink:href="#SVGID_3_"  style="overflow:visible;"/>
			</clipPath>
			<path class="st13" d="M228.99,303.38c1.35-0.54,2.61-1.3,3.61-2.36c1.44-1.54,3.6-3.22,5.4-2.02c0.5,0.33,1.17,0.56,1.93,0.69
				c5.27,0.96,8.89,5.82,7.93,11.09l-0.98,5.4c-0.57,3.11-2.64,5.73-5.53,7c-2.14,0.94-4.4,1.82-5.34,1.82c-2,0-9-7-9-8s0-12,1-13
				C228.28,303.72,228.63,303.52,228.99,303.38z"/>
		</g>
	</g>
	<path class="st14" d="M222,291"/>
	<rect x="217" y="274" class="st8" width="7" height="16"/>
</g>
</svg>
