<svg version="1" xmlns="http://www.w3.org/2000/svg" width="576" height="576" viewBox="0 0 432.000000 432.000000"><path d="M306.5 8.6c-1.1.2-4.5.9-7.5 1.5-20 4-36.3 17.3-48.7 39.5-4.3 7.8-4.9 8.4-7.7 8.3-5.9-.2-8.1-1.3-8.1-4.1 0-1.4-.3-2.9-.7-3.3-.9-.9-6.8 1.4-6.8 2.6 0 .5-.7.9-1.5.9-1.5 0-1.7-1.1-1.9-9.5-.1-1.8-.7-3.1-1.7-3.3-2.1-.4-9.8 5.4-10.9 8.2-1.1 3-3.2 3.8-7 2.4-3.6-1.2-4.3-.8-4.4 2.9-.1 2.1-.7 2.9-2.3 3.1-3.6.5-6.1-1.5-8.9-7.1-6.4-12.7-18.9-26.5-29.5-32.5-10.8-6-19.3-8.4-32.4-8.9-10.3-.5-13.3-.2-20.5 1.6-14.7 3.9-25.9 11-36.5 23.3C61 44 53.1 60.3 51.4 71.5c-.3 2.2-.8 4.3-1.1 4.8-.2.4-.4 5.6-.4 11.6 0 21.2 7 40.2 20.5 55.6 4 4.5 4.2 6 2.2 13.1-3.4 11.6-4.8 33.2-3.1 46.4 4.3 31.4 20 61.2 45.1 85.2 12.5 11.9 22.2 18.8 37.9 26.9 11.9 6.1 12.2 6.5 9.2 12.8-1 2-2 2.6-4.7 2.7-6.9.1-8 .4-11 3.5-1.6 1.8-3 3.5-3 3.9 0 .4-2.1 1.5-4.6 2.5-9.5 3.6-13.5 10.5-13.6 23.5-.1 7.6.5 11 3.4 19.8 1.1 3.5 1.8 6.6 1.5 6.9-.3.2-2.7.7-5.4.9-5.8.6-9.6 1-14.3 1.9-1.9.3-4.8.8-6.5 1-1.6.3-4.1.8-5.5 1.1-1.4.3-3.5.6-4.7.7-1.3.1-2.3.4-2.3.7 0 .4-.6.7-1.2.8-1.3.1-4.8.9-5.8 1.2-.3.1-.8.2-1.2.1-.5 0-.8.3-.8.7 0 .4-1 .8-2.1.9-1.2.1-2.7.7-3.3 1.4-.8.9-.7 1 .4.4s1.1-.4-.2 1.1c-1.6 1.8-1.5 2 .7 4.2 1.4 1.3 2.9 2.1 3.4 1.8.5-.4 1.1-.2 1.3.4.1.5 1.2 1.1 2.3 1.3 1.1.1 2.6.6 3.3 1 .6.5 1.2.6 1.2.3 0-.2 1.5 0 3.2.5 4.7 1.3 9 2.2 11.1 2.1.9 0 1.7.2 1.7.6 0 .4 1.5.7 3.3.8 3 .1 7.8.7 15.9 1.9 4.6.7 22.1 2 38.8 3 3 .2 5.5.4 5.5.5 0 .3 33.2 1.1 50.5 1.1 19.4.1 54.3-.8 62-1.5 2.5-.3 9.2-.8 15-1.2 11.3-.7 13.4-.8 22.5-1.9 3.3-.3 7.6-.8 9.5-1 1.9-.2 5.3-.7 7.5-1 3.7-.4 5.2-.7 12.5-1.9 1.4-.2 5.1-1.1 8.2-1.9 3.1-.8 5.9-1.2 6.2-.9.3.3.6 0 .6-.7s.4-1 .9-.6c.5.3 1.2.1 1.6-.5.4-.6 1.1-.8 1.6-.5.5.4.9.1.9-.5s.4-.9.9-.5c.5.3 1.3 0 1.8-.7 1-1.7 1.2-5.9.2-5.3-.4.3-1-.2-1.3-1.1-.3-.8-1-1.3-1.5-.9-.5.3-1.2.1-1.6-.5-.4-.6-1.1-.8-1.6-.5-.5.4-.9.2-.9-.2 0-.5-.8-.9-1.7-1-1 0-2.8-.4-4-.7-1.3-.3-3.2-.8-4.3-1.1-1.1-.3-3-.8-4.2-1.1-1.3-.3-3.4-.7-4.8-.9-1.4-.1-4.5-.6-7-1-6.5-1-9.6-1.4-17.5-2.1-11.3-.9-12-1-11.8-2 .1-.5 1.3-4.2 2.7-8.3 1.5-4.1 2.6-9.3 2.6-11.7 0-4.7.8-5.6 6.5-7.4 11.5-3.6 18.9-9.1 23.3-17.5 2.3-4.2 2.7-6.3 2.7-13-.1-6.9-.4-8.7-2.9-13.3-4.6-8.3-11.2-12.2-19.9-11.6-10.7.8-17.7 11.6-13.2 20.4.8 1.6 2.4 3.4 3.4 4 2.9 1.5 8.7 1.2 10.1-.5 1.7-2.1.2-3.8-3-3.2-4.1.9-7-1.6-7-6.1.1-4.4 1.4-6.3 5.9-8.7 7.1-3.6 16.5.7 20.3 9.3 1.6 3.5 1.9 5.9 1.6 10.7-.9 10.7-6.4 18.2-17 23-8.1 3.7-9.4 3.2-12.3-4-2.7-6.7-6.6-10.6-12.5-12.4-2.1-.6-4.1-1.9-4.4-2.9-.3-.9-2.2-2.8-4.1-4.1-2.7-1.8-4.7-2.3-8.9-2.2l-5.3.1-1.7-4.3c-.9-2.3-1.6-4.6-1.6-5 0-.3 2.6-1.9 5.8-3.4 9.7-4.6 22.1-12 29.9-18 17.2-13.1 37.1-37.8 46.2-57.3 13.2-28.3 15.5-53.1 8-87.2-1.3-5.5-1.2-5.7 1.4-9 11.8-14.4 18-25.2 21.4-37.9 2.5-9 2.4-28.8-.1-38.9-4.2-16.6-10.6-28.7-20.6-38.9-13.3-13.5-29.4-20.9-47.4-21.6-5.5-.2-11-.2-12.1.1z"/></svg>